<svg width="20" height="33" viewBox="0 0 1000 953" fill="" xmlns="http://www.w3.org/2000/svg">
<path d="M183.2 866.31C173.406 866.308 163.833 863.401 155.691 857.959C147.549 852.516 141.204 844.781 137.458 835.732C133.712 826.684 132.733 816.727 134.645 807.122C136.557 797.517 141.274 788.694 148.2 781.77L162.3 767.66C163.786 766.174 165.55 764.995 167.491 764.191C169.433 763.387 171.514 762.973 173.615 762.973C175.716 762.973 177.797 763.387 179.739 764.191C181.68 764.995 183.444 766.174 184.93 767.66C186.416 769.146 187.595 770.91 188.399 772.851C189.203 774.793 189.617 776.874 189.617 778.975C189.617 781.076 189.203 783.157 188.399 785.099C187.595 787.04 186.416 788.804 184.93 790.29L170.8 804.4C167.623 807.711 165.87 812.136 165.917 816.725C165.965 821.314 167.809 825.701 171.054 828.946C174.299 832.191 178.686 834.035 183.275 834.083C187.864 834.13 192.289 832.377 195.6 829.2L209.71 815.09C212.711 812.089 216.781 810.403 221.025 810.403C225.269 810.403 229.339 812.089 232.34 815.09C235.341 818.091 237.027 822.161 237.027 826.405C237.027 830.649 235.341 834.719 232.34 837.72L218.23 851.82C213.633 856.424 208.172 860.074 202.161 862.56C196.149 865.047 189.706 866.321 183.2 866.31Z" fill="#22c55e"/>
<path d="M341.63 721.8C338.466 721.801 335.372 720.863 332.741 719.105C330.11 717.348 328.058 714.85 326.847 711.927C325.635 709.004 325.318 705.787 325.934 702.683C326.55 699.579 328.073 696.728 330.31 694.49L512.4 512.4C515.444 509.642 519.431 508.161 523.537 508.262C527.643 508.363 531.553 510.039 534.457 512.943C537.361 515.847 539.037 519.757 539.138 523.863C539.239 527.969 537.758 531.956 535 535L352.94 717.11C351.458 718.6 349.695 719.781 347.754 720.586C345.813 721.391 343.731 721.803 341.63 721.8Z" fill="#22c55e"/>
<path d="M294.2 674.37C291.037 674.369 287.945 673.429 285.315 671.671C282.685 669.913 280.635 667.415 279.425 664.492C278.215 661.569 277.898 658.353 278.514 655.251C279.131 652.148 280.654 649.298 282.89 647.06L465 465C468.044 462.242 472.031 460.761 476.137 460.862C480.243 460.963 484.153 462.639 487.057 465.543C489.961 468.447 491.637 472.357 491.738 476.463C491.839 480.569 490.358 484.556 487.6 487.6L305.51 669.69C304.026 671.177 302.263 672.356 300.322 673.159C298.381 673.962 296.301 674.374 294.2 674.37Z" fill="#22c55e"/>
<path d="M312.28 916C304.576 916.021 296.945 914.514 289.828 911.565C282.712 908.616 276.251 904.284 270.82 898.82L101.18 729.18C95.7347 723.735 91.4153 717.27 88.4684 710.156C85.5214 703.041 84.0046 695.416 84.0046 687.715C84.0046 680.014 85.5214 672.389 88.4684 665.274C91.4153 658.16 95.7347 651.695 101.18 646.25C106.625 640.805 113.09 636.485 120.204 633.538C127.319 630.591 134.944 629.075 142.645 629.075C150.346 629.075 157.971 630.591 165.086 633.538C172.2 636.485 178.665 640.805 184.11 646.25L353.75 815.89C364.745 826.889 370.921 841.803 370.921 857.355C370.921 872.907 364.745 887.822 353.75 898.82C348.317 904.284 341.855 908.616 334.736 911.565C327.618 914.514 319.985 916.022 312.28 916ZM142.64 661.09C137.372 661.088 132.222 662.649 127.842 665.574C123.461 668.499 120.046 672.658 118.029 677.525C116.013 682.391 115.485 687.746 116.512 692.913C117.539 698.079 120.075 702.825 123.8 706.55L293.45 876.2C298.446 881.195 305.221 884 312.285 884C319.349 884 326.124 881.195 331.12 876.2C336.115 871.203 338.921 864.426 338.921 857.36C338.921 850.294 336.115 843.518 331.12 838.52L161.48 668.88C159.007 666.405 156.07 664.443 152.837 663.106C149.604 661.769 146.139 661.084 142.64 661.09Z" fill="#22c55e"/>
<path d="M403.73 886.81C396.029 886.823 388.401 885.315 381.284 882.372C374.167 879.429 367.702 875.109 362.26 869.66L130.34 637.74C119.343 626.743 113.165 611.827 113.165 596.275C113.165 580.723 119.343 565.807 130.34 554.81C141.337 543.813 156.253 537.635 171.805 537.635C187.357 537.635 202.273 543.813 213.27 554.81L445.19 786.73C450.636 792.175 454.957 798.639 457.905 805.753C460.852 812.868 462.37 820.494 462.37 828.195C462.37 835.896 460.852 843.522 457.905 850.637C454.957 857.751 450.636 864.215 445.19 869.66C439.749 875.108 433.286 879.428 426.171 882.371C419.056 885.314 411.43 886.823 403.73 886.81ZM171.8 569.64C166.534 569.644 161.387 571.21 157.01 574.138C152.633 577.067 149.223 581.228 147.211 586.095C145.199 590.962 144.675 596.316 145.705 601.48C146.736 606.645 149.274 611.388 153 615.11L384.89 847C389.893 851.985 396.667 854.785 403.73 854.785C410.793 854.785 417.567 851.985 422.57 847C427.565 842.004 430.37 835.229 430.37 828.165C430.37 821.101 427.565 814.326 422.57 809.33L190.64 577.43C188.167 574.955 185.23 572.992 181.997 571.655C178.764 570.319 175.299 569.634 171.8 569.64Z" fill="#22c55e"/>
<path d="M826.4 237C823.237 236.998 820.145 236.059 817.515 234.301C814.885 232.543 812.835 230.045 811.625 227.122C810.415 224.199 810.098 220.983 810.714 217.881C811.331 214.778 812.854 211.928 815.09 209.69L829.2 195.6C831.652 193.15 833.323 190.027 834.001 186.627C834.678 183.227 834.333 179.703 833.008 176.5C831.683 173.296 829.438 170.557 826.556 168.63C823.675 166.702 820.287 165.672 816.82 165.67C814.516 165.661 812.234 166.11 810.105 166.991C807.977 167.871 806.044 169.166 804.42 170.8L790.31 184.91C788.824 186.396 787.06 187.575 785.119 188.379C783.177 189.183 781.096 189.597 778.995 189.597C776.894 189.597 774.813 189.183 772.871 188.379C770.93 187.575 769.166 186.396 767.68 184.91C766.194 183.424 765.015 181.66 764.211 179.719C763.407 177.777 762.993 175.696 762.993 173.595C762.993 171.494 763.407 169.413 764.211 167.471C765.015 165.53 766.194 163.766 767.68 162.28L781.79 148.18C786.374 143.567 791.828 139.909 797.836 137.418C803.844 134.928 810.286 133.654 816.79 133.67H816.85C826.646 133.673 836.22 136.581 844.363 142.025C852.507 147.47 858.852 155.207 862.599 164.258C866.345 173.309 867.323 183.267 865.41 192.874C863.497 202.481 858.778 211.305 851.85 218.23L837.75 232.34C836.258 233.825 834.487 235.001 832.539 235.801C830.592 236.601 828.505 237.008 826.4 237Z" fill="#22c55e"/>
<path d="M523.71 539.71C520.547 539.709 517.455 538.769 514.825 537.011C512.195 535.253 510.145 532.755 508.935 529.832C507.725 526.909 507.408 523.693 508.024 520.591C508.641 517.488 510.164 514.638 512.4 512.4L694.49 330.31C697.506 327.382 701.552 325.759 705.755 325.791C709.958 325.822 713.98 327.506 716.951 330.479C719.922 333.452 721.604 337.474 721.634 341.677C721.664 345.88 720.039 349.926 717.11 352.94L535 535C532.009 538.003 527.949 539.697 523.71 539.71Z" fill="#22c55e"/>
<path d="M476.29 492.29C473.132 492.281 470.048 491.337 467.426 489.578C464.803 487.82 462.76 485.324 461.553 482.407C460.345 479.489 460.029 476.279 460.642 473.182C461.256 470.084 462.772 467.237 465 465L647.06 282.89C650.074 279.961 654.12 278.336 658.323 278.366C662.526 278.396 666.548 280.078 669.521 283.049C672.493 286.02 674.178 290.042 674.209 294.245C674.241 298.448 672.618 302.494 669.69 305.51L487.6 487.6C484.601 490.601 480.533 492.288 476.29 492.29Z" fill="#22c55e"/>
<path d="M857.36 370.9C849.659 370.912 842.031 369.403 834.915 366.46C827.798 363.517 821.333 359.198 815.89 353.75L646.25 184.11C640.805 178.665 636.485 172.2 633.538 165.086C630.591 157.971 629.075 150.346 629.075 142.645C629.075 127.093 635.253 112.177 646.25 101.18C657.247 90.1828 672.163 84.0046 687.715 84.0046C703.267 84.0046 718.183 90.1828 729.18 101.18L898.82 270.82C904.267 276.265 908.587 282.729 911.535 289.843C914.483 296.958 916 304.584 916 312.285C916 319.986 914.483 327.612 911.535 334.727C908.587 341.841 904.267 348.305 898.82 353.75C893.38 359.199 886.916 363.518 879.801 366.462C872.686 369.405 865.06 370.913 857.36 370.9ZM687.72 116C682.45 115.999 677.299 117.561 672.917 120.488C668.535 123.415 665.12 127.576 663.103 132.445C661.086 137.313 660.558 142.67 661.587 147.839C662.615 153.007 665.153 157.754 668.88 161.48L838.52 331.12C843.515 336.117 850.291 338.924 857.357 338.925C864.422 338.926 871.198 336.12 876.195 331.125C881.192 326.13 883.999 319.354 884 312.289C884.001 305.223 881.195 298.447 876.2 293.45L706.55 123.8C704.083 121.32 701.148 119.353 697.916 118.014C694.684 116.675 691.218 115.991 687.72 116Z" fill="#22c55e"/>
<path d="M828.2 462.34C820.499 462.353 812.871 460.845 805.754 457.902C798.637 454.959 792.172 450.639 786.73 445.19L554.81 213.27C543.813 202.273 537.635 187.357 537.635 171.805C537.635 156.253 543.813 141.337 554.81 130.34C565.807 119.343 580.723 113.165 596.275 113.165C611.827 113.165 626.743 119.343 637.74 130.34L869.66 362.26C877.862 370.458 883.448 380.905 885.711 392.279C887.975 403.652 886.814 415.442 882.376 426.155C877.937 436.869 870.421 446.026 860.777 452.467C851.134 458.908 839.797 462.344 828.2 462.34ZM596.27 145.17C591.002 145.171 585.853 146.734 581.474 149.66C577.094 152.587 573.68 156.746 571.664 161.613C569.647 166.479 569.119 171.834 570.145 177.001C571.172 182.167 573.707 186.914 577.43 190.64L809.36 422.57C811.808 425.156 814.75 427.225 818.011 428.654C821.273 430.084 824.788 430.845 828.348 430.893C831.909 430.94 835.443 430.274 838.741 428.932C842.04 427.591 845.036 425.602 847.553 423.082C850.069 420.563 852.055 417.565 853.393 414.265C854.731 410.965 855.394 407.43 855.343 403.869C855.291 400.309 854.526 396.795 853.093 393.535C851.66 390.275 849.588 387.335 847 384.89L615.11 153C612.64 150.518 609.705 148.548 606.471 147.205C603.238 145.861 599.771 145.169 596.27 145.17Z" fill="#22c55e"/>
</svg>
